<svg width="70" height="36" viewBox="0 0 70 36" fill="none" xmlns="http://www.w3.org/2000/svg">
<g clip-path="url(#clip0_0_9)">
<path d="M67.2446 17.0816L67.2075 17.1188C67.4677 16.4126 67.988 16.1524 68.434 16.1524C69.0659 16.1524 69.6234 16.6356 69.6234 17.3418C69.6234 17.4905 69.6234 17.6763 69.5491 17.8993C68.2482 21.2445 65.4977 22.9542 62.8216 23.2144C61.5951 25.2958 59.588 26.8197 56.726 26.8197C52.6375 26.8197 50.8163 23.5861 50.8163 20.0551C50.8163 15.7064 53.5668 10.8745 58.1756 10.8745C59.1791 10.8745 60.034 11.0976 60.7402 11.3949C62.8216 12.1754 64.1597 14.8887 64.1597 17.7878C64.1597 18.717 64.0853 19.6462 63.8623 20.5383C65.2376 20.0551 66.5384 18.94 67.2446 17.0816ZM59.4765 13.9223V13.8852C58.6588 13.8852 58.1756 14.963 58.1756 16.2639C58.1756 18.1595 59.2163 19.9064 60.8517 20.5383C61.1119 19.7206 61.2234 18.7914 61.2234 17.7135C61.2234 15.6321 60.5915 13.9223 59.4765 13.9223ZM56.7632 24.1064C57.8039 24.1064 58.8446 23.6604 59.6623 22.7312C57.2464 21.6533 55.7225 19.1259 55.7225 16.7099C55.7225 15.8922 55.8712 15.0374 56.0942 14.294C54.6075 15.5206 53.7526 17.9365 53.7526 20.0551C53.7526 22.8055 55.0535 24.1064 56.7632 24.1064Z" fill="black"/>
<path d="M51.3902 17.0813L51.353 17.1185C51.6132 16.4123 52.0592 16.115 52.5052 16.115C53.1371 16.115 53.7689 16.6725 53.7689 17.3787C53.7689 17.5645 53.7318 17.7132 53.6574 17.899C52.2079 21.43 50.0521 25.5557 46.5955 27.9716L46.5212 28.715C46.1123 33.1752 43.8451 35.9999 40.9831 35.9999C38.8273 35.9999 37.5636 34.5132 37.5636 32.7663C37.5636 29.607 40.7972 28.4548 43.8079 26.5221C43.8822 25.7415 43.9194 24.8495 43.9565 23.8459C42.4698 25.4813 40.8716 26.1504 39.4592 26.1504C36.6344 26.1504 34.33 23.8459 34.33 20.315C34.33 14.8884 37.8981 11.3203 41.8751 11.3203H41.9123C44.6256 11.3203 47.5247 12.7698 47.5247 15.3716C47.5247 16.2265 47.153 20.8725 46.8557 24.4778C48.8627 22.5822 50.5353 19.4973 51.3902 17.0813ZM39.868 23.4743C41.2433 23.4743 43.1017 22.6194 44.2539 18.4194C44.4397 17.4902 44.5512 16.6725 44.5141 15.7061C44.2911 14.7026 43.4362 14.1079 42.2096 14.1079C39.6822 14.1079 37.2663 16.5238 37.2663 20.2035C37.2663 22.4336 38.307 23.4743 39.868 23.4743ZM41.2804 33.2867H41.3176C42.0981 33.2867 42.953 32.7663 43.5105 29.4212C41.8751 30.3875 40.3512 31.3539 40.3512 32.5061C40.3512 32.9893 40.7229 33.2867 41.2804 33.2867Z" fill="black"/>
<path d="M34.9821 17.0816L34.945 17.1188C35.2051 16.4126 35.7255 16.1524 36.1715 16.1524C36.8034 16.1524 37.3609 16.6356 37.3609 17.3418C37.3609 17.4905 37.3609 17.6763 37.2866 17.8993C35.9857 21.2445 33.2352 22.9542 30.5591 23.2144C29.3326 25.2958 27.3255 26.8197 24.4635 26.8197C20.375 26.8197 18.5538 23.5861 18.5538 20.0551C18.5538 15.7064 21.3042 10.8745 25.9131 10.8745C26.9166 10.8745 27.7715 11.0976 28.4777 11.3949C30.5591 12.1754 31.8972 14.8887 31.8972 17.7878C31.8972 18.717 31.8228 19.6462 31.5998 20.5383C32.9751 20.0551 34.2759 18.94 34.9821 17.0816ZM27.214 13.9223V13.8852C26.3963 13.8852 25.9131 14.963 25.9131 16.2639C25.9131 18.1595 26.9538 19.9064 28.5892 20.5383C28.8494 19.7206 28.9609 18.7914 28.9609 17.7135C28.9609 15.6321 28.329 13.9223 27.214 13.9223ZM24.5007 24.1064C25.5414 24.1064 26.5821 23.6604 27.3998 22.7312C24.9839 21.6533 23.46 19.1259 23.46 16.7099C23.46 15.8922 23.6087 15.0374 23.8317 14.294C22.345 15.5206 21.4901 17.9365 21.4901 20.0551C21.4901 22.8055 22.791 24.1064 24.5007 24.1064Z" fill="black"/>
<path d="M20.4429 15.9085C19.9225 15.9085 19.4765 16.1687 19.1791 16.8749C18.2128 19.328 16.2056 23.4909 14.1613 23.4909C12.8741 23.4909 11.878 23.1998 10.8714 22.9056C9.84348 22.6052 8.80467 22.3015 7.43378 22.3015C6.95058 22.3015 6.28154 22.3759 5.64967 22.4874C7.55325 19.8916 8.26439 16.7479 8.95347 10.8056C7.65601 10.723 6.6006 10.4833 5.83132 10.2412C5.00967 17.7777 4.07661 20.6513 0.669037 23.4909C0.22301 23.8626 0 24.383 0 24.9034C0 25.7211 0.706212 26.4273 1.59827 26.4273C1.89562 26.4273 2.23013 26.3158 2.56465 26.1671C4.46027 25.3122 5.6125 25.0892 7.02492 25.0892C7.92309 25.0892 8.99783 25.3461 10.1485 25.621C11.4739 25.9378 12.9 26.2786 14.2729 26.2786C17.2835 26.2786 19.2535 23.3423 21.4464 17.6554C21.558 17.4696 21.5951 17.2466 21.5951 17.0607C21.5951 16.3545 21.0376 15.9085 20.4429 15.9085Z" fill="black"/>
<path fill-rule="evenodd" clip-rule="evenodd" d="M6.01991 8.70287C6.693 8.93784 7.74382 9.2114 9.10625 9.29233L9.32926 9.29222C13.5294 9.29222 16.2799 6.6904 16.2799 3.56821C16.2799 1.56109 14.7188 0 12.5258 0C9.58944 0 7.54516 2.00712 6.50443 5.98419C5.20352 5.27798 4.31147 4.01424 3.86544 2.41598C3.64242 1.63543 3.15923 1.15223 2.49018 1.15223C1.67247 1.15223 1.1521 1.78411 1.1521 2.63899C1.1521 5.16648 3.12206 7.58245 6.02123 8.69752L6.01991 8.70287ZM9.55227 6.57889C10.1098 4.01424 11.0019 2.78767 12.1913 2.78767C12.8232 2.78767 13.232 3.15936 13.232 3.8284C13.232 5.05497 11.9311 6.50455 9.55227 6.57889Z" fill="black"/>
</g>
<defs>
<clipPath id="clip0_0_9">
<rect width="70" height="36" fill="white"/>
</clipPath>
</defs>
</svg>
